<svg id="artwork" xmlns="http://www.w3.org/2000/svg" viewBox="0 0 42 42"><defs><style>.cls-1{fill:#fff;}</style></defs><title>compliance-icon-white-42px</title><path class="cls-1" d="M6.85,13.07a6.31,6.31,0,1,1,6.31-6.31A6.32,6.32,0,0,1,6.85,13.07Zm0-10.88a4.58,4.58,0,1,0,4.58,4.58A4.58,4.58,0,0,0,6.85,2.18Z"/><path class="cls-1" d="M40.64,7.62h-23a0.87,0.87,0,1,1,0-1.73h23A0.87,0.87,0,1,1,40.64,7.62Z"/><path class="cls-1" d="M6.8,41.45a6.31,6.31,0,1,1,6.31-6.31A6.32,6.32,0,0,1,6.8,41.45Zm0-10.88a4.58,4.58,0,1,0,4.57,4.58A4.58,4.58,0,0,0,6.8,30.56Z"/><path class="cls-1" d="M40.59,36h-23a0.87,0.87,0,0,1,0-1.73h23A0.87,0.87,0,0,1,40.59,36Z"/><path class="cls-1" d="M6.8,27.26a6.31,6.31,0,1,1,6.31-6.31A6.32,6.32,0,0,1,6.8,27.26Zm0-10.88a4.58,4.58,0,1,0,4.57,4.58A4.58,4.58,0,0,0,6.8,16.37Z"/><path class="cls-1" d="M40.59,21.81h-23a0.87,0.87,0,0,1,0-1.73h23A0.87,0.87,0,0,1,40.59,21.81Z"/></svg>